PathFileType	4	(X/Y/Z)	Run_200 01
DataRate	CameraRate	NumFrames	NumMarkers	Units	OrigDataRate	OrigDataStartFrame	OrigNumFrames
120	120	4	42	mm	120	141	128
Frame#	Time	LASI			RASI			LPSI			RPSI			RTH1			RTH2			RTH3			LTH1			LTH2			LTH3			RTB1			RTB2			RTB3			LTB1			LTB2			LTB3			RCAL			RTOE			RMT5			LCAL			LTOE			LMT5			LACR			RACR			CLAV			C7			RUA1			RUA2			RUA3			RLEL			LUA1			LUA2			LUA3			LLEL			RFAsuperior			RFAradius			RFAulna			LFAsuperior			LFAradius			LFAulna			LMEL			RMEL			
		X1	Y1	Z1	X2	Y2	Z2	X3	Y3	Z3	X4	Y4	Z4	X5	Y5	Z5	X6	Y6	Z6	X7	Y7	Z7	X8	Y8	Z8	X9	Y9	Z9	X10	Y10	Z10	X11	Y11	Z11	X12	Y12	Z12	X13	Y13	Z13	X14	Y14	Z14	X15	Y15	Z15	X16	Y16	Z16	X17	Y17	Z17	X18	Y18	Z18	X19	Y19	Z19	X20	Y20	Z20	X21	Y21	Z21	X22	Y22	Z22	X23	Y23	Z23	X24	Y24	Z24	X25	Y25	Z25	X26	Y26	Z26	X27	Y27	Z27	X28	Y28	Z28	X29	Y29	Z29	X30	Y30	Z30	X31	Y31	Z31	X32	Y32	Z32	X33	Y33	Z33	X34	Y34	Z34	X35	Y35	Z35	X36	Y36	Z36	X37	Y37	Z37	X38	Y38	Z38	X39	Y39	Z39	X40	Y40	Z40	X41	Y41	Z41	X42	Y42	Z42	

138	1.308333	1068.018054	1050.683265	-431.283496	1056.151168	1040.445605	-195.918992	898.605087	1084.558777	-376.13075	894.335494	1084.144544	-276.634273	987.195881	876.413642	-156.592643	1034.746253	725.769348	-204.998681	961.153261	642.599771	-213.576726	1039.629179	880.010996	-501.105535	1141.030624	802.44925	-481.582824	1102.076205	665.355759	-460.186522	889.7264709999999	421.963139	-283.512932	811.5734169999999	423.795319	-223.075841	738.384722	322.367086	-285.277475	1210.786063	450.398907	-395.410807	1173.891458	350.94134	-441.827323	1198.651867	255.89113	-373.057145	561.33736	337.821402	-300.711768	657.262482	155.243512	-342.900422	620.378614	136.044904	-243.267405	1081.825936	133.958316	-359.859679	1282.376851	108.19873	-308.208934	1277.21629	55.695757	-405.415241	1033.715899	1520.338662	-513.81646	1067.264	1521.013602	-155.725157	1116.502192	1470.261143	-319.165326	1008.369883	1555.22318	-340.139749	1039.233263	1445.29293	-103.785971	1039.336165	1354.682566	-108.140653	952.5599580000001	1364.209119	-87.010257	923.616941	1253.417803	-53.391834	972.743102	1479.90578	-562.144353	906.663676	1454.41596	-515.401535	913.4003290000001	1391.863631	-576.019993	798.05457	1337.683886	-585.018972	1015.15303	1221.330072	-63.083812	1152.951748	1128.716133	-135.152315	1114.242794	1074.20573	-124.214522	860.3274	1286.253139	-597.076546	1005.681919	1159.287576	-546.050966	952.635298	1118.380655	-558.904448	788.50933	1342.136283	-512.396084	896.537137	1250.959239	-120.893525	
139	1.316667	1068.182492	1045.995801	-431.150535	1056.381489	1036.334193	-194.714563	898.650941	1078.842619	-375.35629	894.086733	1078.308373	-275.801099	991.708452	871.109957	-156.468873	1041.7769	721.706964	-204.790754	970.3933469999999	636.834118	-213.06971	1040.341783	875.912317	-500.840866	1142.506656	798.690656	-480.788205	1103.151561	661.319146	-459.104757	897.5283920000001	418.993475	-281.35294	819.154345	424.269351	-221.722842	742.517368	325.066948	-282.926558	1207.20587	444.453201	-392.241359	1168.981491	345.49189	-438.748135	1191.497868	250.075637	-369.710628	565.070915	345.881718	-298.258717	657.77385	161.303932	-339.125141	620.514091	143.452252	-239.242227	1071.827898	131.179762	-357.804466	1270.435191	99.537959	-303.297632	1265.966002	48.315744	-400.496637	1035.27849	1514.281356	-514.912383	1067.542207	1516.101156	-156.110321	1116.964763	1464.897521	-319.508721	1009.161303	1550.558658	-341.070081	1038.602865	1440.609554	-104.244066	1037.079514	1349.862741	-108.891916	950.724887	1360.899708	-87.678685	919.529391	1250.817492	-54.371738	974.933857	1472.761756	-564.043246	908.156984	1447.680585	-517.988703	915.856003	1384.674674	-577.792599	800.774058	1330.311634	-587.633634	1010.176289	1216.363442	-63.170679	1145.907722	1118.341885	-132.372265	1105.216629	1065.179897	-121.641732	863.7612319999999	1279.490813	-598.825863	1010.313162	1155.149372	-545.649095	957.991254	1113.204155	-558.492784	790.337951	1334.937349	-515.037317	892.956582	1248.820134	-122.169341	
140	1.325	1068.346718	1040.229497	-430.79027	1056.55619	1031.460835	-193.882239	898.761464	1072.489769	-374.730092	893.856736	1071.714012	-275.073882	995.8721379999999	865.371649	-156.283195	1048.523795	717.087567	-203.873076	979.482637	630.647904	-212.375976	1041.002724	871.616394	-500.066205	1144.147921	795.177827	-479.255001	1104.469868	657.044892	-457.870238	906.150546	415.573041	-278.942538	827.5581110000001	424.30834	-220.221966	747.8145919999999	327.26965	-280.3259	1203.004183	437.464862	-389.080701	1163.269796	339.069212	-435.706382	1182.533429	243.314774	-366.540799	570.253521	353.453632	-295.902079	659.308825	166.707647	-334.996592	621.744759	150.508986	-234.784249	1059.288696	127.717842	-356.236544	1256.115911	90.727814	-299.078086	1252.780303	42.719017	-397.514211	1036.756344	1507.567133	-515.877772	1067.642217	1510.367806	-156.463107	1117.327324	1458.839522	-319.769753	1009.806705	1545.212955	-341.922401	1037.772512	1435.102813	-104.662011	1034.54299	1344.255718	-109.773492	948.651103	1356.860146	-88.33819699999999	915.104614	1247.600059	-55.445969	977.111494	1464.868891	-565.830325	909.576974	1439.949668	-520.5703119999999	918.484448	1376.565151	-579.621137	803.788305	1321.826714	-590.414387	1004.680134	1210.624234	-63.257312	1138.065712	1106.904159	-129.338546	1095.178209	1055.269497	-118.927356	867.543292	1271.648373	-600.668585	1015.213248	1150.077588	-545.103468	963.689564	1107.056693	-558.05544	792.388778	1326.62132	-517.8457090000001	889.014841	1246.046634	-123.47046	
141	1.333333	1068.596997	1033.552686	-430.356198	1056.773994	1025.922417	-193.400115	898.902133	1065.507683	-374.256633	893.707542	1064.490792	-274.559443	999.565982	859.084702	-155.978968	1055.013363	711.891542	-202.250749	988.4022200000001	624.013958	-211.513773	1041.647976	866.7843789999999	-498.653145	1145.38122	791.537362	-476.981621	1105.673422	652.3360740000001	-456.531714	915.523036	411.733743	-276.402695	836.745491	423.859133	-218.533421	754.194347	328.941243	-277.48016	1198.187815	429.488499	-385.999668	1156.302794	331.760401	-432.64594	1171.107169	235.698965	-363.474572	576.828862	360.43072	-293.736279	661.941555	171.409068	-330.480234	624.127394	157.238517	-229.895202	1043.717415	122.894147	-354.891859	1239.714591	83.643191	-296.120675	1237.824505	39.804623	-396.643084	1038.164872	1500.266941	-516.748247	1067.478189	1503.868183	-156.795625	1117.573894	1452.158315	-319.941257	1010.251442	1539.192634	-342.755528	1036.662813	1428.838632	-105.045667	1031.671968	1337.850922	-111.009151	946.298456	1352.043265	-89.148974	910.353246	1243.77143	-56.643315	979.260189	1456.254888	-567.448756	910.934947	1431.308488	-523.131278	921.295423	1367.57955	-581.480206	807.116564	1312.263666	-593.322447	998.682355	1204.091445	-63.356903	1129.402602	1094.51564	-126.125987	1084.174286	1044.64905	-116.095856	871.679954	1262.772679	-602.556596	1020.342821	1144.082288	-544.473974	969.7277319999999	1099.943801	-557.632178	794.711095	1317.206619	-520.81685	884.706423	1242.596853	-124.806979	
